<svg id="Capa_1" data-name="Capa 1" xmlns="http://www.w3.org/2000/svg" xmlns:xlink="http://www.w3.org/1999/xlink" viewBox="0 0 500 485"><defs><style>.cls-1{fill:#31322e;}.cls-2{fill:#fbf5e7;}.cls-3{fill:#34332f;}.cls-4{fill:#f7edd7;}.cls-5{fill:url(#Degradado_sin_nombre_141);}</style><linearGradient id="Degradado_sin_nombre_141" x1="251.39" y1="240.82" x2="251.39" y2="126.73" gradientUnits="userSpaceOnUse"><stop offset="0" stop-color="#b4e3e7"/><stop offset="1" stop-color="#b4e3e7" stop-opacity="0"/></linearGradient></defs><rect class="cls-1" x="14.43" y="17.44" width="476.15" height="455.13" rx="10.5"/><rect class="cls-2" x="11.93" y="14.94" width="471.15" height="450.13" rx="8"/><path class="cls-3" d="M475.07,467.56H19.93a10.51,10.51,0,0,1-10.5-10.5V22.94a10.51,10.51,0,0,1,10.5-10.5H475.07a10.51,10.51,0,0,1,10.5,10.5V457.06A10.51,10.51,0,0,1,475.07,467.56ZM19.93,17.44a5.5,5.5,0,0,0-5.5,5.5V457.06a5.5,5.5,0,0,0,5.5,5.5H475.07a5.5,5.5,0,0,0,5.5-5.5V22.94a5.5,5.5,0,0,0-5.5-5.5Z"/><path class="cls-4" d="M456.55,445.88H38.45a4.15,4.15,0,0,1-4.14-4.14V38.26a4.15,4.15,0,0,1,4.14-4.14h418.1a4.15,4.15,0,0,1,4.14,4.14V441.74A4.15,4.15,0,0,1,456.55,445.88ZM38.45,37.12a1.14,1.14,0,0,0-1.14,1.14V441.74a1.14,1.14,0,0,0,1.14,1.14h418.1a1.14,1.14,0,0,0,1.14-1.14V38.26a1.14,1.14,0,0,0-1.14-1.14Z"/><path class="cls-3" d="M174.44,277.66h-8.15a.58.58,0,0,0-.54.36L156,302.57,146.36,278a.56.56,0,0,0-.54-.37H136.9a.58.58,0,0,0-.58.58v.88a.59.59,0,0,0,.5.58l3.22.49v27.49l-3.44,1.47a.57.57,0,0,0-.36.53v.85a.58.58,0,0,0,.58.58h8.64a.58.58,0,0,0,.58-.58v-.85a.59.59,0,0,0-.36-.54l-3.52-1.46V282.81l10.91,28.33a.59.59,0,0,0,.54.37h.73a.58.58,0,0,0,.54-.36l10.83-27.23v24.66l-3.23.53a.57.57,0,0,0-.48.57v.85a.57.57,0,0,0,.57.58h11.87a.58.58,0,0,0,.58-.58v-.85a.57.57,0,0,0-.48-.57l-3.23-.53V280.19l3.22-.49a.59.59,0,0,0,.49-.58v-.88A.58.58,0,0,0,174.44,277.66Z"/><path class="cls-3" d="M199.06,307.33h-.84a.57.57,0,0,0-.58.57,1.31,1.31,0,0,1-.26.89.79.79,0,0,1-.66.27.77.77,0,0,1-.66-.25,1.55,1.55,0,0,1-.25-1V296.28c0-3.47-1.5-7.6-8.65-7.6a11.83,11.83,0,0,0-6.16,1.49,4.81,4.81,0,0,0-2.62,4.25,3,3,0,0,0,.88,2.35,3.17,3.17,0,0,0,2.2.77,3.19,3.19,0,0,0,3.17-3.12.58.58,0,0,0-.4-.55.91.91,0,0,1-.73-1,1.87,1.87,0,0,1,.71-1.55,4,4,0,0,1,2.46-.62,5.69,5.69,0,0,1,2.38.41,2.33,2.33,0,0,1,1.14,1.31,8.47,8.47,0,0,1,.42,3V298h-2.12a17,17,0,0,0-7.65,1.66,6.11,6.11,0,0,0-3.51,5.9A5.46,5.46,0,0,0,179.2,310a7.08,7.08,0,0,0,4.61,1.48,9.19,9.19,0,0,0,4.71-1.25,7.87,7.87,0,0,0,2.32-2,4,4,0,0,0,1.29,2.08,5.23,5.23,0,0,0,3.5,1.21,4.25,4.25,0,0,0,2.91-.95,3.4,3.4,0,0,0,1.1-2.66A.57.57,0,0,0,199.06,307.33Zm-16.57-2.25a4.71,4.71,0,0,1,1.44-3.71,6.69,6.69,0,0,1,4.56-1.32h2.12v3.56a5.87,5.87,0,0,1-.88,2.7A5.14,5.14,0,0,1,188,308a4.27,4.27,0,0,1-4.64-.21A3.54,3.54,0,0,1,182.49,305.08Z"/><path class="cls-3" d="M214.08,295.15a.59.59,0,0,0-.26.48,3.06,3.06,0,0,0,3.12,3.12,3,3,0,0,0,2.24-.88,3.38,3.38,0,0,0,.85-2.44,5.64,5.64,0,0,0-1.24-3.55,7.93,7.93,0,0,0-3.24-2.37,11.49,11.49,0,0,0-4.42-.83,11.34,11.34,0,0,0-5.4,1.34,10.56,10.56,0,0,0-4.08,3.94,11.76,11.76,0,0,0-1.55,6.11,12.07,12.07,0,0,0,1.46,6,10.52,10.52,0,0,0,4,4.05,11.1,11.1,0,0,0,5.57,1.43,9.08,9.08,0,0,0,5.79-1.9,8.33,8.33,0,0,0,3-5.11.6.6,0,0,0-.13-.48.58.58,0,0,0-.44-.21h-.93a.58.58,0,0,0-.57.47,5.9,5.9,0,0,1-2.31,3.75,7.14,7.14,0,0,1-4.43,1.43,4.53,4.53,0,0,1-4-1.93,9.37,9.37,0,0,1-1.41-5.44v-4a9,9,0,0,1,1.44-5.48,4.63,4.63,0,0,1,4-1.85,4.45,4.45,0,0,1,2.81.82,2.44,2.44,0,0,1,1,2,2.16,2.16,0,0,1-.18,1A1.76,1.76,0,0,1,214.08,295.15Z"/><path class="cls-3" d="M231.92,309.15l-2.33-.34V289.66a.58.58,0,0,0-.58-.58h-6.86a.58.58,0,0,0-.58.58v.81a.58.58,0,0,0,.5.57l2.33.33v17.44l-2.33.34a.57.57,0,0,0-.5.57v.81a.58.58,0,0,0,.58.58h9.69a.58.58,0,0,0,.58-.58v-.81A.57.57,0,0,0,231.92,309.15Z"/><path class="cls-3" d="M226.43,285.52a3.07,3.07,0,0,0,2.27-1,3.35,3.35,0,0,0,0-4.63,3.13,3.13,0,0,0-2.27-.93,3.25,3.25,0,0,0-2.36.93,3.26,3.26,0,0,0,0,4.64A3.22,3.22,0,0,0,226.43,285.52Z"/><path class="cls-3" d="M257.67,309.15l-2.33-.34V295a6,6,0,0,0-1.87-4.76,7.33,7.33,0,0,0-5-1.59,8.56,8.56,0,0,0-4.67,1.36,11.81,11.81,0,0,0-2.62,2.25v-2.67a.58.58,0,0,0-.58-.58h-6.86a.58.58,0,0,0-.58.58v.81a.58.58,0,0,0,.49.57l2.33.33v17.48l-2.33.34a.57.57,0,0,0-.49.57v.81a.58.58,0,0,0,.58.58h9.28a.58.58,0,0,0,.58-.58v-.81a.59.59,0,0,0-.49-.57l-1.93-.32V295.57a13.78,13.78,0,0,1,2.82-3.05,5.16,5.16,0,0,1,3.22-1.23,2.5,2.5,0,0,1,2.16.91,4.94,4.94,0,0,1,.73,2.91v13.72l-1.94.32a.58.58,0,0,0-.48.57v.81a.58.58,0,0,0,.58.58h9.28a.58.58,0,0,0,.58-.58v-.81A.57.57,0,0,0,257.67,309.15Z"/><path class="cls-3" d="M283.47,309.15l-2.33-.34V278.24a.58.58,0,0,0-.58-.58H273.7a.58.58,0,0,0-.58.58v.8a.58.58,0,0,0,.49.58l2.33.33v11.84a8.34,8.34,0,0,0-1.83-1.78,7.49,7.49,0,0,0-4.41-1.33,10.1,10.1,0,0,0-5.35,1.41,9.7,9.7,0,0,0-3.61,4,14.67,14.67,0,0,0,0,11.94,9.75,9.75,0,0,0,3.61,4,9.94,9.94,0,0,0,5.35,1.44,7.43,7.43,0,0,0,4.41-1.34,8.52,8.52,0,0,0,1.83-1.77v2.13a.58.58,0,0,0,.58.58h6.86a.58.58,0,0,0,.58-.58v-.81A.57.57,0,0,0,283.47,309.15Zm-13.37.19c-3.38,0-5-2.37-5-7.25v-4c0-4.85,1.65-7.21,5-7.21a4.82,4.82,0,0,1,2.87.92,7,7,0,0,1,2.13,2.54,8,8,0,0,1,.84,3.47v4.63a8,8,0,0,1-.84,3.49,7,7,0,0,1-2.13,2.53A4.75,4.75,0,0,1,270.1,309.34Z"/><path class="cls-3" d="M302,290.1a11.63,11.63,0,0,0-11.14,0,10.4,10.4,0,0,0-4,4,11.83,11.83,0,0,0-1.47,5.93,12.07,12.07,0,0,0,1.46,6,10.45,10.45,0,0,0,4,4.05,11.56,11.56,0,0,0,11.14,0,10.45,10.45,0,0,0,4-4.05,12.08,12.08,0,0,0,1.47-6,11.93,11.93,0,0,0-1.47-5.93A10.49,10.49,0,0,0,302,290.1Zm-11,12v-4a9.25,9.25,0,0,1,1.41-5.41,5.18,5.18,0,0,1,8.05,0,9.33,9.33,0,0,1,1.41,5.41v4a9.45,9.45,0,0,1-1.41,5.44h0a5.16,5.16,0,0,1-8.05,0A9.37,9.37,0,0,1,291,302.09Z"/><path class="cls-3" d="M342,289.66a.58.58,0,0,0-.58-.58h-7a.58.58,0,0,0-.58.58v.81a.58.58,0,0,0,.41.55l2.81.87-4.72,12.63L327,291.39l2.21-.39a.58.58,0,0,0,.48-.57v-.81a.58.58,0,0,0-.58-.58h-9.53a.58.58,0,0,0-.58.58v.81a.6.6,0,0,0,.47.57l1.8.34,2.17,5-3,8.17-5.29-13.17,1.28-.36a.56.56,0,0,0,.42-.55v-.81a.58.58,0,0,0-.58-.58h-9a.58.58,0,0,0-.58.58v.81a.58.58,0,0,0,.49.57l2.3.35L318,311.56a.58.58,0,0,0,.53.35h1.13a.57.57,0,0,0,.54-.38l4.5-12.25,5.12,12.28a.58.58,0,0,0,.54.35h1.13a.58.58,0,0,0,.54-.37l7.34-19.66,2.26-.87a.59.59,0,0,0,.37-.54Z"/><path class="cls-3" d="M357.22,300.4a7.24,7.24,0,0,0-3.25-2.21l-5.65-2a8.9,8.9,0,0,1-2.43-1.16,1.27,1.27,0,0,1-.49-1.08,2.49,2.49,0,0,1,.53-1.48,4,4,0,0,1,1.68-1.24,7.18,7.18,0,0,1,2.82-.5,4.61,4.61,0,0,1,2.7.62,1.62,1.62,0,0,1,.76,1.39,2.18,2.18,0,0,1-.16.87,1.69,1.69,0,0,1-.55.65.58.58,0,0,0-.22.46,2.18,2.18,0,0,0,.75,1.71,2.63,2.63,0,0,0,1.76.6,2.31,2.31,0,0,0,1.81-.78,2.84,2.84,0,0,0,.67-1.94,4.74,4.74,0,0,0-2.3-4.22,9.51,9.51,0,0,0-5.22-1.4,8.27,8.27,0,0,0-5.84,2,6.7,6.7,0,0,0-2.17,5.12c0,2.6,1.34,4.4,4,5.35l6.09,2.22a9.14,9.14,0,0,1,2.49,1.2,1.5,1.5,0,0,1,.48,1.24,3,3,0,0,1-1.37,2.62,6.49,6.49,0,0,1-3.82,1,4.06,4.06,0,0,1-2.66-.79,2.19,2.19,0,0,1-.92-1.73,2.44,2.44,0,0,1,.73-1.67.59.59,0,0,0,.13-.58,2.86,2.86,0,0,0-1-1.42,2.9,2.9,0,0,0-1.71-.51,2.78,2.78,0,0,0-2.1.85,3.17,3.17,0,0,0-.78,2.24,4.77,4.77,0,0,0,2.49,4.16,10.76,10.76,0,0,0,5.84,1.5c2.68,0,4.72-.71,6.07-2.12a7.33,7.33,0,0,0,2-5.28A5.9,5.9,0,0,0,357.22,300.4Z"/><path class="cls-3" d="M353.06,141.62c-18-13-38.07-17.67-58.55-19.57h-.19c-10.59-1-21.3-1.19-31.88-1.41-8.31-.17-16.9-.34-25.21-.89a166.91,166.91,0,0,1-27.75-3.84,3.52,3.52,0,1,0-1.62,6.86,171.59,171.59,0,0,0,28.27,4l.64,0c8.47.55,17.14.73,25.53.9,9.66.2,19.16.39,28.42,1.1,1.48,19.44,2.77,37.48,3.92,54.9-4-.72-8.19-1.3-12.72-1.76a3.51,3.51,0,0,0-3.67,2.31q-3.72,10.28-7.43,20.58c-11.43-.33-23.48,3.8-34,11.83a3.53,3.53,0,1,0,4.27,5.61c8.4-6.38,18.09-10,27.22-10.36q-5.22,14.46-10.44,28.93c-8.37-.54-16.78-.71-25.11-.89-8.1-.16-16.46-.34-24.58-.85l-.63,0a166.76,166.76,0,0,1-27.75-3.84,3.52,3.52,0,1,0-1.62,6.86,173.15,173.15,0,0,0,28.91,4c8.47.56,17.14.73,25.52.9,9.33.19,18.5.39,27.45,1l.22,0h0c21.11,1.56,41,5.72,58.95,18.62a3.58,3.58,0,0,0,2.06.66,3.68,3.68,0,0,0,1.22-.21,3.55,3.55,0,0,0,2.2-2.46l29.74-119.31A3.52,3.52,0,0,0,353.06,141.62Zm-87.95,99.77q5.24-14.53,10.48-29c.49.08,1,.16,1.47.27a29.82,29.82,0,0,1,20.38,15.56,3.53,3.53,0,0,0,6.21-3.34,36.69,36.69,0,0,0-25.1-19.11l-.54-.1q3-8.2,5.93-16.41c4.94.58,9.47,1.31,13.78,2.23a3.53,3.53,0,0,0,4.26-3.68c-1.21-18.49-2.56-37.63-4.14-58.33,17.45,1.93,34,6.23,49.15,16.53L319.06,258C302.28,247.31,283.87,243.15,265.11,241.39Z"/><path class="cls-3" d="M254.63,175.09a3.54,3.54,0,0,0,4.27-2.57l3.49-14a3.53,3.53,0,0,0-6.85-1.7l-3.48,14A3.52,3.52,0,0,0,254.63,175.09Z"/><path class="cls-3" d="M319.75,162.21a3.52,3.52,0,0,0-4.27,2.57l-3.49,14a3.52,3.52,0,1,0,6.84,1.7l3.49-14A3.52,3.52,0,0,0,319.75,162.21Z"/><path class="cls-3" d="M171.68,106.69c1.19.86,2.43,1.7,3.66,2.51a3.58,3.58,0,0,0,1.92.57,3.53,3.53,0,0,0,1.93-6.48c-1.15-.75-2.29-1.53-3.39-2.32a3.52,3.52,0,0,0-4.12,5.72Z"/><path class="cls-3" d="M186.64,115.48a102.07,102.07,0,0,0,9.71,4,3.58,3.58,0,0,0,1.16.2,3.53,3.53,0,0,0,1.16-6.86,94.11,94.11,0,0,1-9-3.67,3.53,3.53,0,1,0-3,6.38Z"/><path class="cls-3" d="M168.94,232.08a93.11,93.11,0,0,1-9-3.68,3.53,3.53,0,0,0-3,6.38,99.32,99.32,0,0,0,9.7,3.95,3.41,3.41,0,0,0,1.16.2,3.52,3.52,0,0,0,1.17-6.85Z"/><path class="cls-3" d="M149.45,222.59c-1.14-.74-2.28-1.52-3.39-2.32A3.52,3.52,0,1,0,142,226c1.19.87,2.43,1.71,3.66,2.51a3.47,3.47,0,0,0,1.92.57,3.52,3.52,0,0,0,1.92-6.48Z"/><path class="cls-3" d="M211,231.18a3.52,3.52,0,0,0,.84-6.94,4,4,0,0,0-.62-.11,165.66,165.66,0,0,1-27.74-3.83,3.52,3.52,0,1,0-1.62,6.86,172.42,172.42,0,0,0,28.27,4l.63,0Z"/><path class="cls-3" d="M153.17,207.68c-1.14-.74-2.28-1.52-3.39-2.32a3.52,3.52,0,0,0-4.12,5.72c1.2.86,2.43,1.71,3.67,2.51a3.52,3.52,0,0,0,3.84-5.91Z"/><path class="cls-3" d="M172.65,217.16a94.11,94.11,0,0,1-9-3.67,3.53,3.53,0,0,0-3,6.38,99.51,99.51,0,0,0,9.71,3.95,3.68,3.68,0,0,0,1.16.2,3.53,3.53,0,0,0,1.16-6.86Z"/><path class="cls-3" d="M214.7,216.26a3.52,3.52,0,0,0,.85-6.94,3.21,3.21,0,0,0-.62-.1,166.91,166.91,0,0,1-27.75-3.84,3.52,3.52,0,1,0-1.62,6.86,171.59,171.59,0,0,0,28.27,4l.64,0Z"/><path class="cls-3" d="M149.38,196.17c1.2.86,2.43,1.71,3.66,2.51a3.56,3.56,0,0,0,1.92.56,3.53,3.53,0,0,0,1.93-6.48c-1.14-.74-2.28-1.52-3.39-2.31a3.52,3.52,0,0,0-4.12,5.72Z"/><path class="cls-3" d="M178.54,206.74a3.53,3.53,0,0,0-2.17-4.49,94.11,94.11,0,0,1-9-3.67,3.53,3.53,0,0,0-3,6.38c3.11,1.45,6.37,2.78,9.71,3.95a3.57,3.57,0,0,0,1.16.19A3.53,3.53,0,0,0,178.54,206.74Z"/><path class="cls-3" d="M153.1,181.26c1.19.86,2.42,1.7,3.66,2.5a3.47,3.47,0,0,0,1.92.57,3.52,3.52,0,0,0,1.92-6.48c-1.14-.74-2.28-1.52-3.39-2.32a3.53,3.53,0,1,0-4.11,5.73Z"/><path class="cls-3" d="M180.09,187.34a93.11,93.11,0,0,1-9-3.68,3.53,3.53,0,1,0-3,6.38,99.32,99.32,0,0,0,9.7,4,3.43,3.43,0,0,0,1.17.2,3.52,3.52,0,0,0,1.16-6.85Z"/><path class="cls-3" d="M218.42,201.35a3.52,3.52,0,0,0,.85-6.94,3.21,3.21,0,0,0-.62-.1,166.91,166.91,0,0,1-27.75-3.84,3.52,3.52,0,1,0-1.62,6.86,171.43,171.43,0,0,0,28.27,4l.64,0Z"/><path class="cls-3" d="M186,176.91a3.53,3.53,0,0,0-2.17-4.49,93.63,93.63,0,0,1-9-3.67,3.53,3.53,0,1,0-3,6.38,101.59,101.59,0,0,0,9.71,4,3.41,3.41,0,0,0,1.16.2A3.53,3.53,0,0,0,186,176.91Z"/><path class="cls-3" d="M222.14,186.44a3.52,3.52,0,0,0,.84-6.94,4,4,0,0,0-.62-.11,165.81,165.81,0,0,1-27.74-3.83,3.52,3.52,0,1,0-1.62,6.86,172.42,172.42,0,0,0,28.27,4l.63.05Z"/><path class="cls-3" d="M156.81,166.34c1.2.86,2.43,1.71,3.67,2.51a3.52,3.52,0,0,0,3.84-5.91c-1.14-.74-2.28-1.52-3.39-2.32a3.52,3.52,0,1,0-4.12,5.72Z"/><path class="cls-3" d="M225.85,171.52a3.52,3.52,0,0,0,.85-6.93,4.23,4.23,0,0,0-.62-.11,166.91,166.91,0,0,1-27.75-3.84,3.52,3.52,0,1,0-1.62,6.86,171.59,171.59,0,0,0,28.27,4l.64.05Z"/><path class="cls-3" d="M160.53,151.43c1.2.86,2.43,1.71,3.66,2.51a3.58,3.58,0,0,0,1.92.57A3.53,3.53,0,0,0,168,148c-1.14-.74-2.28-1.52-3.39-2.31a3.52,3.52,0,1,0-4.12,5.72Z"/><path class="cls-3" d="M189.69,162a3.53,3.53,0,0,0-2.17-4.49,94.11,94.11,0,0,1-9-3.67,3.53,3.53,0,1,0-3,6.38,104.77,104.77,0,0,0,9.71,3.95,3.58,3.58,0,0,0,1.16.2A3.54,3.54,0,0,0,189.69,162Z"/><path class="cls-3" d="M229.57,156.61a3.52,3.52,0,0,0,.85-6.94,3.21,3.21,0,0,0-.62-.1,166.91,166.91,0,0,1-27.75-3.84,3.52,3.52,0,1,0-1.62,6.86,171.59,171.59,0,0,0,28.27,4l.64,0Z"/><path class="cls-3" d="M164.25,136.52c1.19.86,2.43,1.7,3.66,2.5a3.47,3.47,0,0,0,1.92.57,3.52,3.52,0,0,0,1.92-6.48c-1.14-.74-2.28-1.52-3.39-2.32a3.53,3.53,0,1,0-4.11,5.73Z"/><path class="cls-3" d="M177.52,140.62a3.51,3.51,0,0,0,1.69,4.68,103,103,0,0,0,9.7,4,3.67,3.67,0,0,0,1.17.19,3.52,3.52,0,0,0,1.16-6.85,94.15,94.15,0,0,1-9-3.68A3.52,3.52,0,0,0,177.52,140.62Z"/><path class="cls-3" d="M233.29,141.7a3.52,3.52,0,0,0,.84-6.94,3.09,3.09,0,0,0-.62-.1,166.78,166.78,0,0,1-27.74-3.84,3.52,3.52,0,1,0-1.62,6.86,172.42,172.42,0,0,0,28.27,4l.63.05Z"/><path class="cls-3" d="M168,121.6c1.2.87,2.43,1.71,3.67,2.51a3.46,3.46,0,0,0,1.91.57,3.53,3.53,0,0,0,1.93-6.48c-1.14-.74-2.28-1.52-3.39-2.32A3.52,3.52,0,0,0,168,121.6Z"/><path class="cls-3" d="M182.92,130.39a100.54,100.54,0,0,0,9.71,4,3.41,3.41,0,0,0,1.16.2,3.53,3.53,0,0,0,1.16-6.86,94.11,94.11,0,0,1-9-3.67,3.53,3.53,0,1,0-3,6.38Z"/><path class="cls-5" d="M257.82,240.82q5.22-14.49,10.44-28.93c-9.13.36-18.82,4-27.22,10.36a3.53,3.53,0,1,1-4.27-5.61c10.57-8,22.62-12.16,34-11.83q3.71-10.29,7.43-20.58a3.51,3.51,0,0,1,3.67-2.31c4.53.46,8.73,1,12.72,1.76-1.15-17.42-2.44-35.46-3.92-54.9-9.26-.71-18.76-.9-28.42-1.1-8.39-.17-17.06-.35-25.53-.9l-.64,0-2,8a3.52,3.52,0,0,1-.84,6.94h-.24l-.63-.05-2,8a3.52,3.52,0,0,1-.85,6.94h-.23l-.64,0-2,8a3.52,3.52,0,0,1-.85,6.93h-.23l-.64-.05-2,8a3.52,3.52,0,0,1-.84,6.94h-.24l-.63-.05-2,8a3.52,3.52,0,0,1-.85,6.94h-.23l-.64,0-2,8a3.52,3.52,0,0,1-.85,6.94h-.23l-.64,0-2,8a3.52,3.52,0,0,1-.84,6.94h-.24l-.63,0-2,8c8.12.51,16.48.69,24.58.85C241,240.11,249.45,240.28,257.82,240.82Zm-5.76-70,3.48-14a3.53,3.53,0,0,1,6.85,1.7l-3.49,14a3.52,3.52,0,1,1-6.84-1.7Z"/><path class="cls-3" d="M66.67,425.34a.12.12,0,0,1-.13-.13V418c0-.06,0-.08-.08-.08H64.14a.13.13,0,0,1-.13-.13v-1.12a.13.13,0,0,1,.13-.13h6.32a.12.12,0,0,1,.13.13v1.12a.12.12,0,0,1-.13.13H68.15c-.05,0-.08,0-.08.08v7.25a.12.12,0,0,1-.13.13Z"/><path class="cls-3" d="M71.85,416.63a.12.12,0,0,1,.13-.13h1.16a.21.21,0,0,1,.22.13l2.43,5.45h0l2.4-5.45c0-.09.1-.13.22-.13H79.6a.12.12,0,0,1,.13.13v8.58a.12.12,0,0,1-.13.13H78.47a.12.12,0,0,1-.13-.13V419.8h0L76.42,424a.25.25,0,0,1-.25.17h-.76a.24.24,0,0,1-.24-.17L73.3,419.8h-.06v5.41a.12.12,0,0,1-.13.13H72a.12.12,0,0,1-.13-.13Z"/><path class="cls-3" d="M88.45,425.34a.13.13,0,0,1-.13-.13v-.45h0a2.06,2.06,0,0,1-1.77.72,1.87,1.87,0,0,1-2.1-1.91c0-1.36,1-2,2.51-2h1.27s.08,0,.08-.07v-.3c0-.72-.34-1-1.39-1a2.15,2.15,0,0,0-1.43.43.13.13,0,0,1-.19,0l-.48-.86a.13.13,0,0,1,0-.17,3.7,3.7,0,0,1,2.22-.61c1.91,0,2.62.65,2.62,2.19v4.09a.13.13,0,0,1-.13.13Zm-.15-2.11v-.48c0-.05,0-.07-.08-.07h-1c-.94,0-1.35.26-1.35.84s.37.78,1.08.78C87.8,424.3,88.3,424,88.3,423.23Z"/><path class="cls-3" d="M95.49,425.34a.12.12,0,0,1-.13-.13V421.6c0-.81-.41-1.37-1.19-1.37S93,420.79,93,421.6v3.61a.12.12,0,0,1-.13.13h-1.2a.12.12,0,0,1-.13-.13v-6a.13.13,0,0,1,.13-.13h1.2a.13.13,0,0,1,.13.13v.46h0a1.93,1.93,0,0,1,1.65-.73,2.14,2.14,0,0,1,2.17,2.33v3.95a.12.12,0,0,1-.13.13Z"/><path class="cls-3" d="M102.51,425.34a.12.12,0,0,1-.13-.13v-.47h0a1.89,1.89,0,0,1-1.66.74,2.09,2.09,0,0,1-2.17-1.5,5.19,5.19,0,0,1-.22-1.77,5.12,5.12,0,0,1,.22-1.77,2.1,2.1,0,0,1,2.17-1.51,1.89,1.89,0,0,1,1.66.74h0v-3a.12.12,0,0,1,.13-.13h1.19a.12.12,0,0,1,.13.13v8.58a.12.12,0,0,1-.13.13Zm-.26-2a3.75,3.75,0,0,0,.13-1.17,3.71,3.71,0,0,0-.13-1.17,1.14,1.14,0,0,0-1.17-.81,1.13,1.13,0,0,0-1.16.81,3.71,3.71,0,0,0-.13,1.17,3.75,3.75,0,0,0,.13,1.17,1.12,1.12,0,0,0,1.16.8A1.13,1.13,0,0,0,102.25,423.38Z"/><path class="cls-3" d="M108.66,420.92a4.56,4.56,0,1,1,4.56,4.56A4.49,4.49,0,0,1,108.66,420.92Zm8.08,0a3.52,3.52,0,1,0-3.52,3.58A3.46,3.46,0,0,0,116.74,420.92Zm-5.47,1.16a4.88,4.88,0,0,1,0-2.32,2,2,0,0,1,2.09-1.4,2.19,2.19,0,0,1,1.69.73.12.12,0,0,1,0,.18l-.6.53a.13.13,0,0,1-.18,0,1.08,1.08,0,0,0-.89-.43,1,1,0,0,0-1,.7,4.66,4.66,0,0,0,0,1.72,1,1,0,0,0,1,.7,1.08,1.08,0,0,0,.89-.43.13.13,0,0,1,.18,0l.6.53a.12.12,0,0,1,0,.18,2.16,2.16,0,0,1-1.69.73A2,2,0,0,1,111.27,422.08Z"/><path class="cls-3" d="M122.63,416.63a.12.12,0,0,1,.13-.13h3.29c1.87,0,2.76.94,2.76,2.35a2,2,0,0,1-1,1.88v0a2.1,2.1,0,0,1,1.18,2c0,1.76-1.1,2.6-3,2.6h-3.16a.12.12,0,0,1-.13-.13Zm3.38,3.55a1.17,1.17,0,1,0,0-2.33h-1.77a.07.07,0,0,0-.08.08v2.17a.07.07,0,0,0,.08.08ZM124.24,424h1.85a1.23,1.23,0,1,0,0-2.46h-1.85a.07.07,0,0,0-.08.08v2.3A.07.07,0,0,0,124.24,424Z"/><path class="cls-3" d="M134.34,425.34a.12.12,0,0,1-.13-.13v-.45h0a2,2,0,0,1-1.63.72,2.12,2.12,0,0,1-2.15-2.32v-4a.13.13,0,0,1,.13-.13h1.19a.13.13,0,0,1,.13.13v3.62c0,.8.38,1.36,1.17,1.36a1.19,1.19,0,0,0,1.17-1.35V419.2a.13.13,0,0,1,.13-.13h1.2a.13.13,0,0,1,.13.13v6a.12.12,0,0,1-.13.13Z"/><path class="cls-3" d="M137.7,425.34a.12.12,0,0,1-.13-.13v-6a.13.13,0,0,1,.13-.13h1.19a.13.13,0,0,1,.13.13v.54h0a1.78,1.78,0,0,1,1.62-.81,1.91,1.91,0,0,1,1.31.52c.07.07.08.12,0,.18l-.69.87a.11.11,0,0,1-.18,0,1.73,1.73,0,0,0-.92-.3c-.82,0-1.19.59-1.19,1.59v3.39a.12.12,0,0,1-.13.13Z"/><path class="cls-3" d="M142.82,426.89a.12.12,0,0,1,0-.18l.77-.77a.11.11,0,0,1,.19,0,1.92,1.92,0,0,0,1.37.58c1,0,1.4-.52,1.4-1.49v-.59h0a1.8,1.8,0,0,1-1.63.73,2.09,2.09,0,0,1-2.13-1.52,4.93,4.93,0,0,1-.21-1.6,4.8,4.8,0,0,1,.21-1.58,2.09,2.09,0,0,1,2.13-1.54,1.81,1.81,0,0,1,1.63.74h0v-.47a.13.13,0,0,1,.13-.13h1.2a.13.13,0,0,1,.13.13V425a2.62,2.62,0,0,1-2.93,2.87A3.09,3.09,0,0,1,142.82,426.89Zm3.6-3.81a3.05,3.05,0,0,0,.14-1,3.17,3.17,0,0,0-.14-1,1.17,1.17,0,0,0-2.22,0,2.91,2.91,0,0,0-.15,1,2.8,2.8,0,0,0,.15,1,1.17,1.17,0,0,0,2.22,0Z"/><path class="cls-3" d="M149.8,423.74a4.82,4.82,0,0,1-.22-1.53,5,5,0,0,1,.21-1.55,2.77,2.77,0,0,1,5.13,0,5.68,5.68,0,0,1,.21,1.89.13.13,0,0,1-.14.13h-3.86c-.06,0-.08,0-.08.07a1.45,1.45,0,0,0,1.49,1.43,1.92,1.92,0,0,0,1.47-.59c.07-.07.13-.08.2,0l.76.68c.07.05.07.11,0,.18a3.33,3.33,0,0,1-2.58,1.06A2.54,2.54,0,0,1,149.8,423.74Zm3.78-2.77a1.34,1.34,0,0,0-2.45,0,1.43,1.43,0,0,0-.08.54c0,.05,0,.07.08.07h2.45s.08,0,.08-.07A1.66,1.66,0,0,0,153.58,421Z"/><path class="cls-3" d="M156.82,425.34a.12.12,0,0,1-.13-.13v-6a.13.13,0,0,1,.13-.13H158a.13.13,0,0,1,.13.13v.54h0a1.8,1.8,0,0,1,1.62-.81,1.93,1.93,0,0,1,1.32.52c.06.07.07.12,0,.18l-.69.87a.11.11,0,0,1-.18,0,1.68,1.68,0,0,0-.92-.3c-.82,0-1.18.59-1.18,1.59v3.39a.13.13,0,0,1-.13.13Z"/><path class="cls-3" d="M161.69,424.5a.14.14,0,0,1,0-.19l.75-.78a.13.13,0,0,1,.18,0,2.86,2.86,0,0,0,1.83.72c.77,0,1.16-.31,1.16-.74s-.22-.61-1-.69l-.68-.07c-1.27-.13-1.92-.78-1.92-1.84,0-1.21.87-2,2.43-2a3.82,3.82,0,0,1,2.35.77.12.12,0,0,1,0,.18l-.64.77a.13.13,0,0,1-.18,0,3.07,3.07,0,0,0-1.64-.52c-.62,0-.95.28-.95.65s.22.59,1,.67l.67.06c1.32.13,1.94.81,1.94,1.83,0,1.25-.91,2.12-2.62,2.12A3.91,3.91,0,0,1,161.69,424.5Z"/><path class="cls-3" d="M168.42,423.75a4.4,4.4,0,0,1-.21-1.54,4.46,4.46,0,0,1,.21-1.55,2.79,2.79,0,0,1,5.16,0,4.74,4.74,0,0,1,.2,1.55,4.68,4.68,0,0,1-.2,1.54,2.79,2.79,0,0,1-5.16,0Zm3.75-.39a3.33,3.33,0,0,0,.13-1.15,3.43,3.43,0,0,0-.13-1.16,1.15,1.15,0,0,0-1.17-.82,1.17,1.17,0,0,0-1.18.82,3.7,3.7,0,0,0-.13,1.16,3.6,3.6,0,0,0,.13,1.15,1.17,1.17,0,0,0,1.18.82A1.15,1.15,0,0,0,172.17,423.36Z"/><path class="cls-3" d="M175.67,425.34a.12.12,0,0,1-.13-.13v-4.93s0-.07-.08-.07H175a.12.12,0,0,1-.12-.13v-.88a.12.12,0,0,1,.12-.13h.42s.08,0,.08-.07v-.41a1.83,1.83,0,0,1,2.08-2.09h.57a.12.12,0,0,1,.13.13v1a.12.12,0,0,1-.13.13h-.4c-.65,0-.79.16-.79.77V419c0,.05,0,.07.07.07h1.12a.13.13,0,0,1,.13.13v.88a.13.13,0,0,1-.13.13h-1.12s-.07,0-.07.07v4.93a.13.13,0,0,1-.13.13Z"/><path class="cls-3" d="M181.44,425.42c-1.26,0-1.74-.61-1.74-1.83v-3.31s0-.07-.08-.07h-.41a.13.13,0,0,1-.13-.13v-.88a.13.13,0,0,1,.13-.13h.41s.08,0,.08-.07v-1.72a.12.12,0,0,1,.13-.13H181a.13.13,0,0,1,.13.13V419c0,.05,0,.07.07.07h.84a.13.13,0,0,1,.13.13v.88a.13.13,0,0,1-.13.13h-.84s-.07,0-.07.07v3.25c0,.45.18.59.58.59h.33a.13.13,0,0,1,.13.13v1a.13.13,0,0,1-.13.13Z"/><path class="cls-3" d="M186.61,420.92a6.82,6.82,0,0,1,.24-2.39,3,3,0,0,1,3.07-2.17,3.11,3.11,0,0,1,3,1.89.12.12,0,0,1-.07.16l-1.1.53a.12.12,0,0,1-.17-.06,1.74,1.74,0,0,0-1.65-1.14,1.56,1.56,0,0,0-1.59,1.17,6.19,6.19,0,0,0-.16,2,6.32,6.32,0,0,0,.16,2,1.57,1.57,0,0,0,1.59,1.17,1.75,1.75,0,0,0,1.65-1.15.12.12,0,0,1,.17-.06l1.1.53a.12.12,0,0,1,.07.16,3.11,3.11,0,0,1-3,1.89,3,3,0,0,1-3.07-2.17A6.82,6.82,0,0,1,186.61,420.92Z"/><path class="cls-3" d="M194.19,423.75a4.68,4.68,0,0,1-.2-1.54,4.74,4.74,0,0,1,.2-1.55,2.79,2.79,0,0,1,5.16,0,4.46,4.46,0,0,1,.21,1.55,4.4,4.4,0,0,1-.21,1.54,2.79,2.79,0,0,1-5.16,0Zm3.76-.39a3.33,3.33,0,0,0,.13-1.15,3.43,3.43,0,0,0-.13-1.16,1.15,1.15,0,0,0-1.17-.82,1.17,1.17,0,0,0-1.18.82,3.43,3.43,0,0,0-.13,1.16,3.33,3.33,0,0,0,.13,1.15,1.17,1.17,0,0,0,1.18.82A1.15,1.15,0,0,0,198,423.36Z"/><path class="cls-3" d="M201.25,425.34a.12.12,0,0,1-.13-.13v-6a.13.13,0,0,1,.13-.13h1.2a.13.13,0,0,1,.13.13v.54h0a1.8,1.8,0,0,1,1.63-.81,1.91,1.91,0,0,1,1.31.52c.07.07.08.12,0,.18l-.69.87q-.09.11-.18,0a1.74,1.74,0,0,0-.93-.3c-.82,0-1.18.59-1.18,1.59v3.39a.12.12,0,0,1-.13.13Z"/><path class="cls-3" d="M206.75,427.68a.12.12,0,0,1-.13-.13V419.2a.13.13,0,0,1,.13-.13H208a.13.13,0,0,1,.13.13v.47h0a1.89,1.89,0,0,1,1.66-.74,2.12,2.12,0,0,1,2.18,1.51,5.37,5.37,0,0,1,.22,1.77,5.45,5.45,0,0,1-.22,1.77,2.11,2.11,0,0,1-2.18,1.5,1.89,1.89,0,0,1-1.66-.74h0v2.81a.12.12,0,0,1-.13.13Zm3.79-4.3a3.75,3.75,0,0,0,.13-1.17,3.71,3.71,0,0,0-.13-1.17,1.24,1.24,0,0,0-2.33,0,3.71,3.71,0,0,0-.13,1.17,3.75,3.75,0,0,0,.13,1.17,1.25,1.25,0,0,0,2.33,0Z"/><path class="cls-3" d="M213.58,423.75a4.4,4.4,0,0,1-.21-1.54,4.46,4.46,0,0,1,.21-1.55,2.79,2.79,0,0,1,5.16,0,4.71,4.71,0,0,1,.21,1.55,4.64,4.64,0,0,1-.21,1.54,2.79,2.79,0,0,1-5.16,0Zm3.75-.39a3.33,3.33,0,0,0,.13-1.15,3.43,3.43,0,0,0-.13-1.16,1.15,1.15,0,0,0-1.17-.82,1.17,1.17,0,0,0-1.18.82,3.7,3.7,0,0,0-.13,1.16,3.6,3.6,0,0,0,.13,1.15,1.17,1.17,0,0,0,1.18.82A1.15,1.15,0,0,0,217.33,423.36Z"/><path class="cls-3" d="M220.64,425.34a.12.12,0,0,1-.13-.13v-6a.13.13,0,0,1,.13-.13h1.19a.13.13,0,0,1,.13.13v.54h0a1.81,1.81,0,0,1,1.63-.81,1.91,1.91,0,0,1,1.31.52c.07.07.08.12,0,.18l-.69.87a.11.11,0,0,1-.18,0,1.73,1.73,0,0,0-.92-.3c-.82,0-1.19.59-1.19,1.59v3.39a.12.12,0,0,1-.13.13Z"/><path class="cls-3" d="M229.5,425.34a.12.12,0,0,1-.13-.13v-.45h0a2.06,2.06,0,0,1-1.77.72,1.88,1.88,0,0,1-2.11-1.91c0-1.36,1-2,2.51-2h1.28s.08,0,.08-.07v-.3c0-.72-.34-1-1.39-1a2.18,2.18,0,0,0-1.44.43.12.12,0,0,1-.18,0l-.48-.86a.13.13,0,0,1,0-.17,3.67,3.67,0,0,1,2.22-.61c1.91,0,2.61.65,2.61,2.19v4.09a.12.12,0,0,1-.13.13Zm-.15-2.11v-.48c0-.05,0-.07-.08-.07h-1c-.94,0-1.35.26-1.35.84s.37.78,1.08.78C228.85,424.3,229.35,424,229.35,423.23Z"/><path class="cls-3" d="M234.4,425.42c-1.26,0-1.74-.61-1.74-1.83v-3.31s0-.07-.08-.07h-.41a.13.13,0,0,1-.13-.13v-.88a.13.13,0,0,1,.13-.13h.41s.08,0,.08-.07v-1.72a.12.12,0,0,1,.13-.13H234a.13.13,0,0,1,.13.13V419c0,.05,0,.07.07.07H235a.13.13,0,0,1,.13.13v.88a.13.13,0,0,1-.13.13h-.84c-.05,0-.07,0-.07.07v3.25c0,.45.18.59.58.59H235a.13.13,0,0,1,.13.13v1a.13.13,0,0,1-.13.13Z"/><path class="cls-3" d="M236.87,417.89a.12.12,0,0,1-.13-.13v-1.13a.12.12,0,0,1,.13-.13h1.2a.12.12,0,0,1,.13.13v1.13a.12.12,0,0,1-.13.13Zm0,7.45a.12.12,0,0,1-.13-.13v-6a.13.13,0,0,1,.13-.13h1.2a.13.13,0,0,1,.13.13v6a.12.12,0,0,1-.13.13Z"/><path class="cls-3" d="M240,423.75a4.4,4.4,0,0,1-.21-1.54,4.46,4.46,0,0,1,.21-1.55,2.79,2.79,0,0,1,5.16,0,4.71,4.71,0,0,1,.21,1.55,4.64,4.64,0,0,1-.21,1.54,2.79,2.79,0,0,1-5.16,0Zm3.75-.39a3.33,3.33,0,0,0,.13-1.15,3.43,3.43,0,0,0-.13-1.16,1.15,1.15,0,0,0-1.17-.82,1.17,1.17,0,0,0-1.18.82,3.7,3.7,0,0,0-.13,1.16,3.6,3.6,0,0,0,.13,1.15,1.17,1.17,0,0,0,1.18.82A1.15,1.15,0,0,0,243.72,423.36Z"/><path class="cls-3" d="M250.86,425.34a.12.12,0,0,1-.13-.13V421.6c0-.81-.4-1.37-1.18-1.37a1.21,1.21,0,0,0-1.2,1.37v3.61a.12.12,0,0,1-.13.13H247a.12.12,0,0,1-.13-.13v-6a.13.13,0,0,1,.13-.13h1.19a.13.13,0,0,1,.13.13v.46h0a2,2,0,0,1,1.66-.73,2.14,2.14,0,0,1,2.17,2.33v3.95a.13.13,0,0,1-.13.13Z"/><path class="cls-3" d="M259.35,418.24h0l-1.35.95c-.08.05-.14,0-.14-.08v-1.32a.19.19,0,0,1,.09-.18l1.42-1a.34.34,0,0,1,.23-.08h1.11a.13.13,0,0,1,.13.13v8.58a.13.13,0,0,1-.13.13h-1.2a.12.12,0,0,1-.13-.13Z"/><path class="cls-3" d="M267.23,421.67l0,0a1.72,1.72,0,0,1-.66.12,2.49,2.49,0,0,1-2.52-2.62,2.82,2.82,0,0,1,5.64-.06,4.26,4.26,0,0,1-.59,2l-2.3,4.14c0,.07-.06.08-.15.08h-1.26c-.1,0-.12,0-.08-.13Zm1-2.61a1.35,1.35,0,1,0-1.35,1.41A1.29,1.29,0,0,0,268.19,419.06Z"/><path class="cls-3" d="M272.23,420.71v0a2.22,2.22,0,0,1-.91-1.81,2.66,2.66,0,0,1,5.32,0,2.22,2.22,0,0,1-.91,1.81v0a2.46,2.46,0,0,1,1.1,2.12,2.86,2.86,0,0,1-5.7,0A2.46,2.46,0,0,1,272.23,420.71Zm1.74,3.47a1.42,1.42,0,1,0-1.37-1.41A1.33,1.33,0,0,0,274,424.18Zm1.2-5.33a1.19,1.19,0,1,0-1.2,1.2A1.17,1.17,0,0,0,275.17,418.85Z"/><path class="cls-3" d="M278.42,420.92a10,10,0,0,1,.18-2.83,2.69,2.69,0,0,1,5,0,21.17,21.17,0,0,1,0,5.66,2.69,2.69,0,0,1-5,0A10,10,0,0,1,278.42,420.92Zm2.69,3.26a1,1,0,0,0,1.09-.7,27.37,27.37,0,0,0,0-5.12,1.19,1.19,0,0,0-2.17,0,29.84,29.84,0,0,0,0,5.12A1,1,0,0,0,281.11,424.18Z"/><path class="cls-3" d="M285.27,422.4v-1a.12.12,0,0,1,.13-.13H289a.13.13,0,0,1,.13.13v1a.13.13,0,0,1-.13.13H285.4A.12.12,0,0,1,285.27,422.4Z"/><path class="cls-3" d="M290.63,424.24a.2.2,0,0,1,.06-.17l3.12-3.89a2.11,2.11,0,0,0,.57-1.35,1.1,1.1,0,0,0-1.17-1.17,1.14,1.14,0,0,0-1.19,1.1c0,.08-.07.12-.14.11l-1.15-.24a.11.11,0,0,1-.1-.15,2.43,2.43,0,0,1,2.62-2.12,2.4,2.4,0,0,1,2.6,2.47,3.11,3.11,0,0,1-.83,2.06L292.45,424v0h3.27a.12.12,0,0,1,.13.13v1a.12.12,0,0,1-.13.13h-5a.12.12,0,0,1-.13-.13Z"/><path class="cls-3" d="M297.7,420.92a9.54,9.54,0,0,1,.18-2.83,2.69,2.69,0,0,1,5,0,22.34,22.34,0,0,1,0,5.66,2.69,2.69,0,0,1-5,0A9.54,9.54,0,0,1,297.7,420.92Zm2.69,3.26a1,1,0,0,0,1.09-.7,27.37,27.37,0,0,0,0-5.12,1,1,0,0,0-1.09-.7,1,1,0,0,0-1.08.7,27.37,27.37,0,0,0,0,5.12A1,1,0,0,0,300.39,424.18Z"/><path class="cls-3" d="M304.56,423.86v-1a.34.34,0,0,1,0-.16l2.86-6.1a.18.18,0,0,1,.18-.1h1.24c.09,0,.12.05.09.12l-2.81,6v0h2c.06,0,.08,0,.08-.08V420.4a.12.12,0,0,1,.13-.13h1.2a.12.12,0,0,1,.13.13v2.21c0,.05,0,.08.08.08h.65a.13.13,0,0,1,.13.13v1a.13.13,0,0,1-.13.13h-.65c-.06,0-.08,0-.08.08v1.14a.12.12,0,0,1-.13.13h-1.2a.12.12,0,0,1-.13-.13v-1.14c0-.06,0-.08-.08-.08h-3.47A.13.13,0,0,1,304.56,423.86Z"/><path class="cls-3" d="M311.7,423.86v-1a.25.25,0,0,1,0-.16l2.86-6.1a.18.18,0,0,1,.18-.1H316c.09,0,.11.05.09.12l-2.81,6v0h2a.07.07,0,0,0,.08-.08V420.4a.12.12,0,0,1,.13-.13h1.2a.12.12,0,0,1,.12.13v2.21a.07.07,0,0,0,.08.08h.65a.12.12,0,0,1,.13.13v1a.12.12,0,0,1-.13.13h-.65c-.05,0-.08,0-.08.08v1.14a.12.12,0,0,1-.12.13h-1.2a.12.12,0,0,1-.13-.13v-1.14c0-.06,0-.08-.08-.08h-3.47A.12.12,0,0,1,311.7,423.86Z"/><path class="cls-3" d="M319.1,423.88a.13.13,0,0,1,.13-.13h1.3a.13.13,0,0,1,.13.13v1.33a.12.12,0,0,1-.13.13h-1.3a.12.12,0,0,1-.13-.13Z"/><path class="cls-3" d="M327.6,416.63a.16.16,0,0,1,.17-.13H329a.16.16,0,0,1,.17.13l3,8.58c0,.08,0,.13-.09.13h-1.27a.16.16,0,0,1-.17-.13l-.59-1.72h-3.32l-.59,1.72a.16.16,0,0,1-.17.13h-1.26c-.09,0-.12,0-.09-.13Zm1.94,5.5-1.17-3.43h0l-1.19,3.43Z"/><path class="cls-3" d="M335,425.42c-1.22,0-1.72-.59-1.72-1.8v-7a.12.12,0,0,1,.13-.13h1.2a.12.12,0,0,1,.13.13v6.92c0,.43.17.57.54.57h.29a.12.12,0,0,1,.13.13v1a.12.12,0,0,1-.13.13Z"/><path class="cls-3" d="M338.7,425.42c-1.22,0-1.72-.59-1.72-1.8v-7a.13.13,0,0,1,.13-.13h1.2a.12.12,0,0,1,.13.13v6.92c0,.43.17.57.55.57h.28a.12.12,0,0,1,.13.13v1a.12.12,0,0,1-.13.13Z"/><path class="cls-3" d="M343.89,416.63a.12.12,0,0,1,.13-.13h1.27a.12.12,0,0,1,.13.13v7.25c0,.06,0,.08.08.08h4.06a.13.13,0,0,1,.13.13v1.12a.13.13,0,0,1-.13.13H344a.12.12,0,0,1-.13-.13Z"/><path class="cls-3" d="M350.83,423.74a4.82,4.82,0,0,1-.22-1.53,5,5,0,0,1,.21-1.55,2.77,2.77,0,0,1,5.13,0,5.42,5.42,0,0,1,.21,1.89.13.13,0,0,1-.14.13h-3.86c-.06,0-.08,0-.08.07a1.45,1.45,0,0,0,1.49,1.43,1.9,1.9,0,0,0,1.47-.59c.07-.07.13-.08.2,0l.76.68c.07.05.07.11,0,.18a3.33,3.33,0,0,1-2.58,1.06A2.54,2.54,0,0,1,350.83,423.74Zm3.78-2.77a1.34,1.34,0,0,0-2.45,0,1.43,1.43,0,0,0-.08.54c0,.05,0,.07.08.07h2.45c.06,0,.08,0,.08-.07A1.43,1.43,0,0,0,354.61,421Z"/><path class="cls-3" d="M358,425.34a.13.13,0,0,1-.13-.13v-4.93s0-.07-.07-.07h-.42a.13.13,0,0,1-.13-.13v-.88a.13.13,0,0,1,.13-.13h.42c.05,0,.07,0,.07-.07v-.41A1.83,1.83,0,0,1,360,416.5h.58a.13.13,0,0,1,.13.13v1a.13.13,0,0,1-.13.13h-.41c-.65,0-.79.16-.79.77V419c0,.05,0,.07.08.07h1.12a.13.13,0,0,1,.13.13v.88a.13.13,0,0,1-.13.13h-1.12c-.05,0-.08,0-.08.07v4.93a.12.12,0,0,1-.13.13Z"/><path class="cls-3" d="M363.82,425.42c-1.26,0-1.75-.61-1.75-1.83v-3.31s0-.07-.07-.07h-.42a.13.13,0,0,1-.13-.13v-.88a.13.13,0,0,1,.13-.13H362c.05,0,.07,0,.07-.07v-1.72a.13.13,0,0,1,.13-.13h1.2a.12.12,0,0,1,.13.13V419c0,.05,0,.07.08.07h.83a.13.13,0,0,1,.13.13v.88a.13.13,0,0,1-.13.13h-.83c-.05,0-.08,0-.08.07v3.25c0,.45.18.59.59.59h.32a.12.12,0,0,1,.13.13v1a.12.12,0,0,1-.13.13Z"/><path class="cls-3" d="M365.78,424.5a.14.14,0,0,1,0-.19l.74-.78a.13.13,0,0,1,.18,0,2.89,2.89,0,0,0,1.84.72c.76,0,1.15-.31,1.15-.74s-.22-.61-1-.69l-.67-.07c-1.28-.13-1.93-.78-1.93-1.84,0-1.21.87-2,2.43-2a3.83,3.83,0,0,1,2.36.77.13.13,0,0,1,0,.18l-.63.77a.14.14,0,0,1-.19,0,3,3,0,0,0-1.63-.52c-.63,0-1,.28-1,.65s.22.59,1,.67l.68.06c1.31.13,1.94.81,1.94,1.83,0,1.25-.91,2.12-2.63,2.12A3.88,3.88,0,0,1,365.78,424.5Z"/><path class="cls-3" d="M380.74,425.34a.18.18,0,0,1-.19-.13l-1.69-3.44h-1.52c-.06,0-.08,0-.08.07v3.37a.12.12,0,0,1-.13.13h-1.28a.13.13,0,0,1-.13-.13v-8.58a.13.13,0,0,1,.13-.13h3.42a2.63,2.63,0,0,1,2.82,2.64,2.51,2.51,0,0,1-1.67,2.43l1.86,3.6a.11.11,0,0,1-.09.17Zm-.17-6.2a1.23,1.23,0,0,0-1.35-1.26h-1.88c-.06,0-.08,0-.08.08v2.35c0,.05,0,.08.08.08h1.88A1.23,1.23,0,0,0,380.57,419.14Z"/><path class="cls-3" d="M383.46,423.74a4.82,4.82,0,0,1-.22-1.53,5,5,0,0,1,.21-1.55,2.77,2.77,0,0,1,5.13,0,5.68,5.68,0,0,1,.21,1.89.13.13,0,0,1-.14.13h-3.86c-.06,0-.08,0-.08.07a1.45,1.45,0,0,0,1.49,1.43,1.92,1.92,0,0,0,1.47-.59c.07-.07.13-.08.2,0l.76.68c.07.05.07.11,0,.18a3.33,3.33,0,0,1-2.58,1.06A2.54,2.54,0,0,1,383.46,423.74Zm3.78-2.77a1.34,1.34,0,0,0-2.45,0,1.43,1.43,0,0,0-.08.54c0,.05,0,.07.08.07h2.45c.05,0,.08,0,.08-.07A1.66,1.66,0,0,0,387.24,421Z"/><path class="cls-3" d="M390,424.5a.14.14,0,0,1,0-.19l.74-.78a.14.14,0,0,1,.19,0,2.86,2.86,0,0,0,1.83.72c.77,0,1.16-.31,1.16-.74s-.23-.61-1-.69l-.68-.07c-1.27-.13-1.92-.78-1.92-1.84,0-1.21.87-2,2.43-2a3.82,3.82,0,0,1,2.35.77.14.14,0,0,1,0,.18l-.64.77a.13.13,0,0,1-.18,0,3.07,3.07,0,0,0-1.64-.52c-.63,0-1,.28-1,.65s.22.59,1,.67l.67.06c1.32.13,1.94.81,1.94,1.83,0,1.25-.91,2.12-2.63,2.12A3.9,3.9,0,0,1,390,424.5Z"/><path class="cls-3" d="M396.71,423.74a4.82,4.82,0,0,1-.22-1.53,5,5,0,0,1,.2-1.55,2.77,2.77,0,0,1,5.14,0,5.68,5.68,0,0,1,.21,1.89.14.14,0,0,1-.15.13H398s-.08,0-.08.07a1.46,1.46,0,0,0,1.5,1.43,1.92,1.92,0,0,0,1.47-.59.13.13,0,0,1,.19,0l.77.68c.07.05.07.11,0,.18a3.29,3.29,0,0,1-2.57,1.06A2.53,2.53,0,0,1,396.71,423.74Zm3.78-2.77a1.35,1.35,0,0,0-2.46,0,1.66,1.66,0,0,0-.08.54c0,.05,0,.07.08.07h2.46c.05,0,.08,0,.08-.07A1.66,1.66,0,0,0,400.49,421Z"/><path class="cls-3" d="M403.73,425.34a.12.12,0,0,1-.13-.13v-6a.13.13,0,0,1,.13-.13h1.19a.13.13,0,0,1,.13.13v.54h0a1.81,1.81,0,0,1,1.63-.81,1.91,1.91,0,0,1,1.31.52c.07.07.08.12,0,.18l-.69.87a.11.11,0,0,1-.18,0,1.74,1.74,0,0,0-.93-.3c-.81,0-1.18.59-1.18,1.59v3.39a.12.12,0,0,1-.13.13Z"/><path class="cls-3" d="M410.78,425.34a.15.15,0,0,1-.16-.13l-2.21-6c0-.07,0-.13.1-.13h1.27a.18.18,0,0,1,.16.13l1.38,4.07h0l1.36-4.07a.16.16,0,0,1,.15-.13h1.25c.08,0,.13.06.1.13l-2.21,6a.16.16,0,0,1-.17.13Z"/><path class="cls-3" d="M415.22,423.74a4.82,4.82,0,0,1-.22-1.53,5,5,0,0,1,.21-1.55,2.77,2.77,0,0,1,5.13,0,5.68,5.68,0,0,1,.21,1.89.13.13,0,0,1-.14.13h-3.87c-.05,0-.07,0-.07.07a1.17,1.17,0,0,0,.09.48,1.35,1.35,0,0,0,1.4.95,1.92,1.92,0,0,0,1.47-.59c.07-.07.13-.08.19,0l.77.68c.07.05.07.11,0,.18a3.33,3.33,0,0,1-2.58,1.06A2.53,2.53,0,0,1,415.22,423.74ZM419,421a1.35,1.35,0,0,0-2.46,0,1.69,1.69,0,0,0-.07.54c0,.05,0,.07.07.07H419c.05,0,.08,0,.08-.07A1.66,1.66,0,0,0,419,421Z"/><path class="cls-3" d="M426,425.34a.12.12,0,0,1-.13-.13v-.47h0a1.89,1.89,0,0,1-1.67.74A2.11,2.11,0,0,1,422,424a5.19,5.19,0,0,1-.22-1.77,5.12,5.12,0,0,1,.22-1.77,2.11,2.11,0,0,1,2.17-1.51,1.89,1.89,0,0,1,1.67.74h0v-3a.12.12,0,0,1,.13-.13h1.19a.12.12,0,0,1,.13.13v8.58a.12.12,0,0,1-.13.13Zm-.26-2a3.75,3.75,0,0,0,.13-1.17,3.71,3.71,0,0,0-.13-1.17,1.24,1.24,0,0,0-2.33,0,3.71,3.71,0,0,0-.13,1.17,3.75,3.75,0,0,0,.13,1.17,1.25,1.25,0,0,0,2.33,0Z"/><path class="cls-3" d="M429.1,423.88a.13.13,0,0,1,.13-.13h1.3a.13.13,0,0,1,.13.13v1.33a.12.12,0,0,1-.13.13h-1.3a.12.12,0,0,1-.13-.13Z"/></svg>